<?xml version="1.0" standalone="no"?>
<!DOCTYPE svg PUBLIC "-//W3C//DTD SVG 20010904//EN"
 "http://www.w3.org/TR/2001/REC-SVG-20010904/DTD/svg10.dtd">
<svg version="1.0" xmlns="http://www.w3.org/2000/svg"
 width="256.000000pt" height="256.000000pt" viewBox="0 0 256.000000 256.000000"
 preserveAspectRatio="xMidYMid meet">
<metadata>
Created by potrace 1.14, written by Peter Selinger 2001-2017
</metadata>
<g transform="translate(0.000000,256.000000) scale(0.100000,-0.100000)"
fill="#000000" stroke="none">
<path d="M1225 2546 c-16 -8 -39 -28 -50 -45 -14 -22 -30 -33 -55 -37 -149
-23 -262 -57 -381 -113 -64 -29 -73 -31 -200 -32 -74 -1 -144 -5 -156 -10 -36
-13 -45 -45 -47 -159 -1 -107 -7 -128 -47 -160 -12 -10 -98 -149 -125 -201
-24 -48 -94 -232 -93 -244 0 -3 -2 -18 -5 -33 -13 -57 -16 -79 -23 -142 -16
-150 -5 -296 32 -440 32 -127 74 -224 147 -343 169 -275 423 -464 733 -546
116 -30 185 -39 320 -39 481 1 891 261 1115 707 125 250 150 647 56 909 -14
40 -14 46 2 76 9 18 31 60 48 92 43 82 33 152 -28 196 -39 27 -111 27 -150 -2
-15 -11 -31 -20 -36 -20 -5 0 -23 18 -41 41 -33 40 -33 42 -35 155 -2 159 0
158 -190 160 -138 2 -147 3 -203 31 -103 53 -218 87 -393 117 -26 4 -38 13
-47 33 -23 51 -94 74 -148 49z"/>
</g>
</svg>
